<?xml version="1.0" encoding="UTF-8" standalone="no"?>
<svg xmlns:xlink="http://www.w3.org/1999/xlink" height="112.0px" width="112.0px" xmlns="http://www.w3.org/2000/svg">
  <g transform="matrix(1.0, 0.0, 0.0, 1.0, 56.0, 56.0)">
    <use data-characterId="128" height="45.4" id="inner" transform="matrix(0.0, -1.0013, 1.0, 0.0, -22.5, 19.9777)" width="48.1" xlink:href="#sprite0"/>
    <use data-characterId="77" height="9.6" id="hitbit" transform="matrix(3.1884, 0.0, 0.0, 2.2917, -11.3, -14.65)" width="6.9" xlink:href="#sprite2"/>
  </g>
  <defs>
    <g id="sprite0" transform="matrix(1.0, 0.0, 0.0, 1.0, 22.15, 22.7)">
      <use data-characterId="122" height="42.45" transform="matrix(1.0, 0.0, 0.0, 1.0, -22.15, -19.75)" width="39.95" xlink:href="#shape0"/>
      <use data-characterId="126" height="196.6" id="arm" transform="matrix(0.0542, 0.0, 0.0, 0.0542, -3.1394, 8.1254)" width="536.85" xlink:href="#sprite1"/>
      <use data-characterId="127" height="43.85" transform="matrix(1.0, 0.0, 0.0, 1.0, -12.1, -22.7)" width="28.5" xlink:href="#shape1"/>
    </g>
    <g id="shape0" transform="matrix(1.0, 0.0, 0.0, 1.0, 22.15, 19.75)">
      <path d="M7.75 -15.75 L7.7 -15.2 Q10.75 -14.1 13.25 -11.6 17.8 -7.05 17.8 -0.6 17.8 5.8 13.25 10.35 8.7 14.9 2.3 14.9 -4.15 14.9 -8.7 10.35 -12.85 6.2 -13.2 0.45 -14.15 0.8 -14.95 1.5 -15.8 2.15 -15.9 4.0 -16.0 5.8 -15.3 6.9 L-13.95 9.3 -13.0 11.3 Q-12.6 12.5 -12.6 13.85 L-12.8 15.6 -13.6 18.6 Q-15.0 22.7 -17.2 22.7 -18.6 22.7 -19.4 21.75 -20.0 21.05 -20.0 20.25 -20.05 19.25 -18.8 16.85 -17.6 14.45 -17.6 13.9 -17.6 12.6 -18.35 11.3 L-19.95 9.05 -21.55 6.65 Q-22.25 5.15 -22.15 3.55 -22.0 0.8 -20.6 -1.6 -17.85 -6.45 -12.25 -6.45 L-12.15 -6.45 Q-11.0 -9.3 -8.7 -11.6 -6.15 -14.15 -2.95 -15.25 L-3.0 -15.75 Q-3.0 -17.4 -1.45 -18.55 0.15 -19.75 2.4 -19.75 4.6 -19.75 6.2 -18.55 7.75 -17.4 7.75 -15.75" fill="#613030" fill-rule="evenodd" stroke="none"/>
    </g>
    <g id="sprite1" transform="matrix(1.0, 0.0, 0.0, 1.0, 140.95, 60.4)">
      <use data-characterId="123" height="196.6" transform="matrix(1.0, 0.0, 0.0, 1.0, -140.95, -60.4)" width="536.85" xlink:href="#morphshape0"/>
    </g>
    <g id="morphshape0" transform="matrix(1.0, 0.0, 0.0, 1.0, 140.95, 60.4)">
      <path d="M-136.0 37.5 Q-136.0 75.8 -99.25 102.9 -62.5 130.0 -10.5 130.0 41.5 130.0 78.25 102.9 115.0 75.8 115.0 37.5 115.0 -0.8 78.25 -27.9 41.5 -55.0 -10.5 -55.0 -62.5 -55.0 -99.25 -27.9 -136.0 -0.8 -136.0 37.5" fill="#613030" fill-rule="evenodd" stroke="none"/>
      <path d="M-136.0 37.5 Q-136.0 -0.8 -99.25 -27.9 -62.5 -55.0 -10.5 -55.0 41.5 -55.0 78.25 -27.9 115.0 -0.8 115.0 37.5 115.0 75.8 78.25 102.9 41.5 130.0 -10.5 130.0 -62.5 130.0 -99.25 102.9 -136.0 75.8 -136.0 37.5 Z" fill="none" stroke="#000000" stroke-linecap="round" stroke-linejoin="round" stroke-opacity="0.0" stroke-width="1.0"/>
    </g>
    <g id="shape1" transform="matrix(1.0, 0.0, 0.0, 1.0, 12.1, 22.7)">
      <path d="M10.4 10.75 L10.45 10.8 10.4 10.8 10.4 10.95 10.4 11.15 10.35 11.15 10.35 11.3 10.35 11.35 10.35 11.4 10.3 11.4 10.3 11.5 10.3 11.6 10.25 11.65 10.25 11.7 10.25 11.75 10.2 11.8 10.2 11.85 10.2 11.9 10.15 11.9 10.15 11.95 10.15 12.0 10.1 12.0 10.1 12.05 10.1 12.1 10.05 12.1 10.05 12.15 10.05 12.2 10.0 12.2 10.0 12.25 9.95 12.3 9.95 12.4 9.9 12.4 9.9 12.45 9.85 12.5 9.8 12.55 9.8 12.6 9.75 12.65 9.75 12.7 9.7 12.75 9.7 12.8 9.65 12.8 9.65 12.85 9.6 12.9 9.6 12.95 9.55 13.0 Q8.2 14.7 4.95 15.95 5.4 16.65 5.4 17.55 5.35 19.0 4.15 20.1 2.9 21.1 1.15 21.15 -0.6 21.1 -1.8 20.1 -3.05 19.0 -3.05 17.55 -3.1 16.5 -2.5 15.7 -5.65 14.5 -8.1 11.4 L-8.35 11.05 Q-12.15 6.1 -12.1 -0.75 L-12.1 -0.8 Q-12.15 -7.7 -8.35 -12.6 L-8.1 -12.95 Q-5.65 -16.1 -2.5 -17.25 -3.1 -18.1 -3.05 -19.1 -3.05 -20.6 -1.8 -21.65 -0.6 -22.7 1.15 -22.7 2.9 -22.7 4.15 -21.65 5.35 -20.6 5.4 -19.1 5.4 -18.2 4.95 -17.5 7.6 -16.55 9.05 -14.75 L10.6 -12.65 10.7 -12.1 10.7 -12.0 10.7 -11.95 10.25 -12.7 9.45 -13.25 9.4 -13.25 9.3 -13.25 Q7.95 -13.25 7.05 -9.6 6.1 -6.0 6.1 -0.9 6.1 4.2 7.05 7.85 7.95 11.45 9.3 11.45 L9.35 11.45 9.65 11.35 10.15 11.05 10.25 10.9 10.35 10.75 10.4 10.75" fill="#663333" fill-rule="evenodd" stroke="none"/>
      <path d="M10.7 -12.0 L11.55 -9.6 Q11.6 -9.3 12.0 -8.95 13.05 -8.65 14.15 -7.4 L14.7 -6.65 Q16.4 -4.25 16.4 -0.75 16.4 2.7 14.7 5.15 L14.15 5.9 12.0 7.6 Q11.45 7.85 11.2 8.9 L10.4 10.75 10.35 10.75 10.25 10.9 10.15 11.05 9.65 11.35 9.35 11.45 9.3 11.45 Q7.95 11.45 7.05 7.85 6.1 4.2 6.1 -0.9 6.1 -6.0 7.05 -9.6 7.95 -13.25 9.3 -13.25 L9.4 -13.25 9.45 -13.25 10.25 -12.7 10.7 -11.95 10.7 -12.0 M10.05 5.45 Q9.85 5.15 9.55 5.15 9.3 5.15 9.1 5.45 L8.9 6.15 9.1 6.85 9.55 7.15 10.05 6.85 10.25 6.15 10.05 5.45 M9.55 -8.5 L9.1 -8.2 8.9 -7.5 9.1 -6.8 9.55 -6.5 Q9.85 -6.5 10.05 -6.8 L10.25 -7.5 10.05 -8.2 9.55 -8.5" fill="#cc9933" fill-rule="evenodd" stroke="none"/>
      <path d="M9.55 -8.5 L10.05 -8.2 10.25 -7.5 10.05 -6.8 Q9.85 -6.5 9.55 -6.5 L9.1 -6.8 8.9 -7.5 9.1 -8.2 9.55 -8.5 M10.05 5.45 L10.25 6.15 10.05 6.85 9.55 7.15 9.1 6.85 8.9 6.15 9.1 5.45 Q9.3 5.15 9.55 5.15 9.85 5.15 10.05 5.45" fill="#000000" fill-rule="evenodd" stroke="none"/>
    </g>
    <g id="sprite2" transform="matrix(1.0, 0.0, 0.0, 1.0, 0.0, 0.0)">
      <use data-characterId="76" height="9.6" transform="matrix(1.0, 0.0, 0.0, 1.0, 0.0, 0.0)" width="6.9" xlink:href="#shape2"/>
    </g>
    <g id="shape2" transform="matrix(1.0, 0.0, 0.0, 1.0, 0.0, 0.0)">
      <path d="M0.0 9.6 L0.0 0.0 6.9 0.0 6.9 9.6 0.0 9.6" fill="#666666" fill-opacity="0.0" fill-rule="evenodd" stroke="none"/>
    </g>
  </defs>
</svg>
